<svg width="353" height="377" viewBox="0 0 353 377" fill="none" xmlns="http://www.w3.org/2000/svg">
<circle cx="176.5" cy="183.5" r="169" fill="white" stroke="black" stroke-width="15"/>
<g filter="url(#filter0_d_16_759)">
<path d="M137.765 140.401C105.172 113.195 89.4182 74.1301 85.6156 57.9983C64.7556 37.0706 64.1038 34.1276 65.4075 31.8385C66.7112 29.5495 76.1634 36.4165 74.2078 34.1276C72.2521 31.8386 68.3409 23.3366 70.9484 23.3366C73.5559 23.3366 81.0525 34.1276 79.4228 30.2036C77.7931 26.2795 76.4893 16.7967 79.4228 17.4507C81.7695 17.9739 85.3983 26.1706 86.9193 30.2036C86.4847 26.3886 86.2674 18.7587 88.8749 18.7587C92.1343 18.7587 93.1121 20.0667 93.1121 31.8385C93.1121 43.6104 97.3493 36.0895 100.935 34.1276C104.52 32.1656 104.846 36.0895 102.238 39.6864C99.6308 43.2834 97.3493 47.8613 97.3493 51.7853C97.3493 55.7093 118.535 86.4469 123.75 92.3328C128.965 98.2188 141.351 105.74 154.062 110.318C164.231 113.98 166.122 107.266 165.796 103.451C147.544 101.62 138.417 88.7359 136.136 82.5229C124.728 82.5229 122.12 71.0781 120.165 63.2302C118.6 56.9518 126.684 57.1263 130.921 57.9983C130.921 38.3786 137.765 6.6598 181.115 6.00581C215.795 5.48261 223.378 40.4495 222.835 57.9983C225.008 57.2353 229.419 57.8674 229.68 66.5001C229.94 75.1328 219.793 80.7789 214.686 82.5229C210.449 102.47 184.7 101.162 185.352 105.74C185.874 109.402 189.481 108.792 191.219 108.029C208.494 108.029 226.746 94.9488 236.85 84.8119C246.954 74.675 256.08 49.1693 255.429 44.9184C254.777 40.6676 250.865 37.0705 251.517 34.1276C252.169 31.1846 259.666 38.7054 260.969 39.6864C262.273 40.6674 264.229 31.5116 263.903 28.8956C263.577 26.2796 265.859 17.4507 266.836 18.7587C267.814 20.0667 269.77 32.4925 269.77 28.8956C269.77 25.2986 275.963 17.7777 276.94 18.7587C277.918 19.7397 275.311 32.8196 275.963 31.5116C276.614 30.2036 283.133 22.3557 284.437 23.9907C285.741 25.6256 278.57 39.0325 280.526 37.0705C282.481 35.1085 289 31.8386 289 34.1276C289 36.4165 282.481 40.0135 280.526 44.9184C278.961 48.8424 272.703 55.2733 269.77 57.9983C258.362 104.432 214.686 136.15 214.686 145.633V188.356C189.046 193.37 138.743 200.389 142.654 188.356C146.566 176.322 141.025 153.372 137.765 140.401Z" fill="#F9E0CD"/>
</g>
<g filter="url(#filter1_d_16_759)">
<path d="M132.527 271.235C133.049 257.402 140.136 220.668 143.614 204.03C169.374 212.186 213.396 198.484 213.396 201.42C213.396 204.356 222.526 265.036 224.809 273.845C227.091 282.653 227.744 327.347 237.526 339.744C247.309 352.141 254.482 358.666 243.396 361.928C232.309 365.191 222.852 354.751 217.309 349.531C211.765 344.311 213.396 338.439 213.396 334.851C213.396 331.262 199.374 302.227 196.766 291.135C194.157 280.043 178.179 240.242 175.896 243.178C173.614 246.115 141.331 327.347 141.331 334.851C141.331 342.354 135.462 358.34 126.005 361.928C116.549 365.517 105.788 359.318 108.397 354.751C111.005 350.184 122.418 331.588 123.07 327.347C123.723 323.106 131.875 288.525 132.527 271.235Z" fill="#F9E0CD"/>
</g>
<path fill-rule="evenodd" clip-rule="evenodd" d="M166.866 80.6042C167.603 80.2595 168.467 80.6054 168.796 81.3768C169.394 82.7774 170.234 84.302 171.237 85.5799C172.253 86.8752 173.346 87.8022 174.421 88.1966C175.411 88.5597 176.49 88.5164 177.734 87.6407C179.053 86.7122 180.597 84.8116 182.225 81.3285C182.58 80.5696 183.456 80.2554 184.181 80.6268C184.906 80.9982 185.206 81.9144 184.851 82.6733C183.118 86.3803 181.291 88.8236 179.365 90.1795C177.364 91.5882 175.324 91.7695 173.455 91.0841C171.671 90.4299 170.165 89.0351 168.978 87.5218C167.777 85.9911 166.808 84.2203 166.127 82.625C165.798 81.8536 166.129 80.9488 166.866 80.6042Z" fill="#371B07"/>
<ellipse cx="157.725" cy="59.5611" rx="4.59636" ry="7.77846" transform="rotate(0.956055 157.725 59.5611)" fill="#371B07"/>
<ellipse cx="195.885" cy="59.5648" rx="4.59636" ry="7.77846" transform="rotate(12.0135 195.885 59.5648)" fill="#371B07"/>
<defs>
<filter id="filter0_d_16_759" x="55" y="0" width="244" height="209" filterUnits="userSpaceOnUse" color-interpolation-filters="sRGB">
<feFlood flood-opacity="0" result="BackgroundImageFix"/>
<feColorMatrix in="SourceAlpha" type="matrix" values="0 0 0 0 0 0 0 0 0 0 0 0 0 0 0 0 0 0 127 0" result="hardAlpha"/>
<feOffset dy="4"/>
<feGaussianBlur stdDeviation="5"/>
<feComposite in2="hardAlpha" operator="out"/>
<feColorMatrix type="matrix" values="0 0 0 0 0 0 0 0 0 0 0 0 0 0 0 0 0 0 0.2 0"/>
<feBlend mode="normal" in2="BackgroundImageFix" result="effect1_dropShadow_16_759"/>
<feBlend mode="normal" in="SourceGraphic" in2="effect1_dropShadow_16_759" result="shape"/>
</filter>
<filter id="filter1_d_16_759" x="98" y="195" width="161" height="182" filterUnits="userSpaceOnUse" color-interpolation-filters="sRGB">
<feFlood flood-opacity="0" result="BackgroundImageFix"/>
<feColorMatrix in="SourceAlpha" type="matrix" values="0 0 0 0 0 0 0 0 0 0 0 0 0 0 0 0 0 0 127 0" result="hardAlpha"/>
<feOffset dy="4"/>
<feGaussianBlur stdDeviation="5"/>
<feComposite in2="hardAlpha" operator="out"/>
<feColorMatrix type="matrix" values="0 0 0 0 0 0 0 0 0 0 0 0 0 0 0 0 0 0 0.2 0"/>
<feBlend mode="normal" in2="BackgroundImageFix" result="effect1_dropShadow_16_759"/>
<feBlend mode="normal" in="SourceGraphic" in2="effect1_dropShadow_16_759" result="shape"/>
</filter>
</defs>
</svg>
