<svg width="364" height="368" viewBox="0 0 364 368" fill="none" xmlns="http://www.w3.org/2000/svg">
<circle cx="181.5" cy="176.5" r="169" fill="white" stroke="black" stroke-width="15"/>
<g filter="url(#filter0_d_16_758)">
<path d="M121.625 260.509C71.6251 218.909 47.4585 159.176 41.6251 134.509C9.62515 102.509 8.62512 98.009 10.6251 94.5089C12.6251 91.0088 27.1251 101.509 24.1251 98.009C21.1251 94.5091 15.1251 81.5089 19.1251 81.5089C23.1251 81.5089 34.6251 98.009 32.1251 92.0089C29.6251 86.0088 27.6251 71.5089 32.1251 72.5089C35.7251 73.3089 41.2918 85.8422 43.6251 92.0089C42.9585 86.1756 42.6251 74.5089 46.6251 74.5089C51.6251 74.5089 53.1251 76.5089 53.1251 94.5089C53.1251 112.509 59.6251 101.009 65.1251 98.009C70.6251 95.0091 71.1251 101.009 67.1251 106.509C63.1251 112.009 59.6251 119.009 59.6251 125.009C59.6251 131.009 92.1251 178.009 100.125 187.009C108.125 196.009 127.125 207.509 146.625 214.509C162.225 220.109 165.125 209.842 164.625 204.009C136.625 201.209 122.625 181.509 119.125 172.009C101.625 172.009 97.6251 154.509 94.6251 142.509C92.2251 132.909 104.625 133.176 111.125 134.509C111.125 104.509 121.625 56.0089 188.125 55.0089C241.325 54.2089 252.958 107.676 252.125 134.509C255.458 133.342 262.225 134.309 262.625 147.509C263.025 160.709 247.458 169.342 239.625 172.009C233.125 202.509 193.625 200.509 194.625 207.509C195.425 213.109 200.958 212.176 203.625 211.009C230.125 211.009 258.125 191.009 273.625 175.509C289.125 160.009 303.125 121.009 302.125 114.509C301.125 108.009 295.125 102.509 296.125 98.009C297.125 93.509 308.625 105.009 310.625 106.509C312.625 108.009 315.625 94.009 315.125 90.0089C314.625 86.0089 318.125 72.5089 319.625 74.5089C321.125 76.509 324.125 95.5089 324.125 90.0089C324.125 84.5089 333.625 73.0089 335.125 74.5089C336.625 76.0089 332.625 96.009 333.625 94.009C334.625 92.009 344.625 80.009 346.625 82.509C348.625 85.009 337.625 105.509 340.625 102.509C343.625 99.509 353.625 94.509 353.625 98.009C353.625 101.509 343.625 107.009 340.625 114.509C338.225 120.509 328.625 130.342 324.125 134.509C306.625 205.509 239.625 254.009 239.625 268.509V343.009C200.292 350.676 123.125 361.409 129.125 343.009C135.125 324.609 126.625 280.342 121.625 260.509Z" fill="#F9E0CD"/>
</g>
<path fill-rule="evenodd" clip-rule="evenodd" d="M168.684 168.674C169.693 168.223 170.875 168.676 171.326 169.684C172.144 171.515 173.294 173.508 174.666 175.179C176.057 176.873 177.552 178.084 179.024 178.6C180.379 179.075 181.855 179.018 183.557 177.873C185.362 176.659 187.475 174.175 189.704 169.621C190.189 168.629 191.387 168.218 192.379 168.704C193.371 169.189 193.782 170.387 193.296 171.379C190.925 176.225 188.425 179.42 185.79 181.192C183.051 183.034 180.259 183.271 177.701 182.375C175.26 181.52 173.2 179.696 171.575 177.718C169.931 175.717 168.606 173.402 167.674 171.316C167.223 170.307 167.676 169.125 168.684 168.674Z" fill="#371B07"/>
<ellipse cx="155.683" cy="138.107" rx="6.5" ry="11" transform="rotate(0.956055 155.683 138.107)" fill="#371B07"/>
<ellipse cx="209.647" cy="138.112" rx="6.5" ry="11" transform="rotate(12.0135 209.647 138.112)" fill="#371B07"/>
<defs>
<filter id="filter0_d_16_758" x="0" y="49" width="363.625" height="318.168" filterUnits="userSpaceOnUse" color-interpolation-filters="sRGB">
<feFlood flood-opacity="0" result="BackgroundImageFix"/>
<feColorMatrix in="SourceAlpha" type="matrix" values="0 0 0 0 0 0 0 0 0 0 0 0 0 0 0 0 0 0 127 0" result="hardAlpha"/>
<feOffset dy="4"/>
<feGaussianBlur stdDeviation="5"/>
<feComposite in2="hardAlpha" operator="out"/>
<feColorMatrix type="matrix" values="0 0 0 0 0 0 0 0 0 0 0 0 0 0 0 0 0 0 0.2 0"/>
<feBlend mode="normal" in2="BackgroundImageFix" result="effect1_dropShadow_16_758"/>
<feBlend mode="normal" in="SourceGraphic" in2="effect1_dropShadow_16_758" result="shape"/>
</filter>
</defs>
</svg>
